solid top-platform
  facet normal 0 0 -1
    outer loop
      vertex -0.4 -0.4 -0.06
      vertex 0.4 0.4 -0.06
      vertex 0.4 -0.4 -0.06
    endloop
  endfacet
  facet normal 0 0 -1
    outer loop
      vertex -0.4 -0.4 -0.06
      vertex -0.4 0.4 -0.06
      vertex 0.4 0.4 -0.06
    endloop
  endfacet
  facet normal 0 0 1
    outer loop
      vertex -0.4 -0.4 0.06
      vertex 0.4 -0.4 0.06
      vertex 0.4 0.4 0.06
    endloop
  endfacet
  facet normal 0 0 1
    outer loop
      vertex -0.4 -0.4 0.06
      vertex 0.4 0.4 0.06
      vertex -0.4 0.4 0.06
    endloop
  endfacet
  facet normal 0 -1 0
    outer loop
      vertex -0.4 -0.4 -0.06
      vertex 0.4 -0.4 -0.06
      vertex 0.4 -0.4 0.06
    endloop
  endfacet
  facet normal 0 -1 0
    outer loop
      vertex -0.4 -0.4 -0.06
      vertex 0.4 -0.4 0.06
      vertex -0.4 -0.4 0.06
    endloop
  endfacet
  facet normal 1 0 0
    outer loop
      vertex 0.4 -0.4 -0.06
      vertex 0.4 0.4 -0.06
      vertex 0.4 0.4 0.06
    endloop
  endfacet
  facet normal 1 0 0
    outer loop
      vertex 0.4 -0.4 -0.06
      vertex 0.4 0.4 0.06
      vertex 0.4 -0.4 0.06
    endloop
  endfacet
  facet normal 0 1 0
    outer loop
      vertex 0.4 0.4 -0.06
      vertex -0.4 0.4 -0.06
      vertex -0.4 0.4 0.06
    endloop
  endfacet
  facet normal 0 1 0
    outer loop
      vertex 0.4 0.4 -0.06
      vertex -0.4 0.4 0.06
      vertex 0.4 0.4 0.06
    endloop
  endfacet
  facet normal -1 0 0
    outer loop
      vertex -0.4 0.4 -0.06
      vertex -0.4 -0.4 -0.06
      vertex -0.4 -0.4 0.06
    endloop
  endfacet
  facet normal -1 0 0
    outer loop
      vertex -0.4 0.4 -0.06
      vertex -0.4 -0.4 0.06
      vertex -0.4 0.4 0.06
    endloop
  endfacet
endsolid top-platform
