solid foot
  facet normal 0 0 -1
    outer loop
      vertex -0.09 -0.055 -0.035
      vertex 0.09 0.055 -0.035
      vertex 0.09 -0.055 -0.035
    endloop
  endfacet
  facet normal 0 0 -1
    outer loop
      vertex -0.09 -0.055 -0.035
      vertex -0.09 0.055 -0.035
      vertex 0.09 0.055 -0.035
    endloop
  endfacet
  facet normal 0 0 1
    outer loop
      vertex -0.09 -0.055 0.035
      vertex 0.09 -0.055 0.035
      vertex 0.09 0.055 0.035
    endloop
  endfacet
  facet normal 0 0 1
    outer loop
      vertex -0.09 -0.055 0.035
      vertex 0.09 0.055 0.035
      vertex -0.09 0.055 0.035
    endloop
  endfacet
  facet normal 0 -1 0
    outer loop
      vertex -0.09 -0.055 -0.035
      vertex 0.09 -0.055 -0.035
      vertex 0.09 -0.055 0.035
    endloop
  endfacet
  facet normal 0 -1 0
    outer loop
      vertex -0.09 -0.055 -0.035
      vertex 0.09 -0.055 0.035
      vertex -0.09 -0.055 0.035
    endloop
  endfacet
  facet normal 1 0 0
    outer loop
      vertex 0.09 -0.055 -0.035
      vertex 0.09 0.055 -0.035
      vertex 0.09 0.055 0.035
    endloop
  endfacet
  facet normal 1 0 0
    outer loop
      vertex 0.09 -0.055 -0.035
      vertex 0.09 0.055 0.035
      vertex 0.09 -0.055 0.035
    endloop
  endfacet
  facet normal 0 1 0
    outer loop
      vertex 0.09 0.055 -0.035
      vertex -0.09 0.055 -0.035
      vertex -0.09 0.055 0.035
    endloop
  endfacet
  facet normal 0 1 0
    outer loop
      vertex 0.09 0.055 -0.035
      vertex -0.09 0.055 0.035
      vertex 0.09 0.055 0.035
    endloop
  endfacet
  facet normal -1 0 0
    outer loop
      vertex -0.09 0.055 -0.035
      vertex -0.09 -0.055 -0.035
      vertex -0.09 -0.055 0.035
    endloop
  endfacet
  facet normal -1 0 0
    outer loop
      vertex -0.09 0.055 -0.035
      vertex -0.09 -0.055 0.035
      vertex -0.09 0.055 0.035
    endloop
  endfacet
endsolid foot
